:SAMPLES-PER-SECOND 30
:FULLY-SPECIFIED
:DEGREES
204
root  -0.617861 37.4339 -23.4413 -103.297 -87.3158 102.526
RightUpLeg  -28.2588 -25.1863 -1.71582
RightLeg  55.6284 -3.16892 -5.4646
RightFoot  -11.186 -0.0982275 13.8252
RightToes  -1.33073e-015 0 -3.6325e-017
Spine  27.0315 1.60306 -2.39393
Spine1  -18.8369 1.23324 -1.05563
HEad  -8.23517 7.52627 -2.12625
LeftShoulder1  -0.137365 4.95372 -0.905714
LeftArm  -56.5155 -2.10451 -18.2024
LeftForeArm  49.6311 -78.0557 -94.2239
LeftHand  -0.420133 3.96846 34.1028
RightShoulder  -0.00980595 -3.57921 4.95775
RightArm  -69.3987 -12.8048 20.7713
RightForeArm  25.0563 77.6486 80.46
RightHand  -2.40258 1.92012 -36.2242
LeftUpLeg  -18.6726 25.6016 3.56337
LeftLeg  41.5289 5.43241 5.52212
LeftFoot  -13.5104 -0.168094 -12.9376
LeftToes  -4.0021e-011 8.38769e-011 -3.99229e-011
205
root  -0.213454 35.7164 -23.0458 -84.4029 -86.245 82.439
RightUpLeg  -30.9008 -24.0962 -1.79349
RightLeg  62.4395 -4.40195 -9.66578
RightFoot  -14.143 0.125435 9.64303
RightToes  -1.33073e-015 0 -3.6325e-017
Spine  30.9689 1.18581 -3.30607
Spine1  -20.531 0.490126 -0.998049
HEad  -9.98984 6.89304 -2.16499
LeftShoulder1  -0.0616498 6.19843 7.25581
LeftArm  -61.2622 -6.83251 -11.7055
LeftForeArm  18.8033 -76.5745 -62.455
LeftHand  -0.614483 3.1861 31.9733
RightShoulder  -0.117368 -4.96025 -0.585428
RightArm  -72.4265 -7.46482 12.9623
RightForeArm  0.341107 75.6615 58.7613
RightHand  -2.45363 2.6551 -34.5442
LeftUpLeg  -24.397 24.9073 2.18528
LeftLeg  53.8489 3.12041 5.11675
LeftFoot  -17.8741 -0.636712 -13.0372
LeftToes  -4.0021e-011 8.38769e-011 -3.99229e-011
206
root  0.208803 33.8291 -22.5816 -87.5959 -85.7554 85.9899
RightUpLeg  -34.9119 -19.8152 -1.61565
RightLeg  68.677 -5.07132 -14.8446
RightFoot  -20.7501 0.502427 7.58878
RightToes  -1.33073e-015 0 -3.6325e-017
Spine  33.2518 1.10644 -3.6257
Spine1  -20.6517 0.224259 -0.424305
HEad  -14.6839 6.69015 -3.32692
LeftShoulder1  0.159416 7.02654 14.7621
LeftArm  -66.2256 -7.50816 -5.13531
LeftForeArm  -8.40121 -70.2275 -36.3461
LeftHand  -0.680189 2.87727 31.0142
RightShoulder  -0.089292 -5.85585 -5.29113
RightArm  -76.5538 -2.69718 3.87134
RightForeArm  -26.7039 69.0657 35.6102
RightHand  -2.16663 2.44299 -31.6131
LeftUpLeg  -31.5538 25.0038 0.413814
LeftLeg  65.2359 2.00604 5.56049
LeftFoot  -22.0407 -0.951796 -11.5952
LeftToes  -4.0021e-011 8.38769e-011 -3.99229e-011
207
root  0.557691 32.2853 -22.1085 -100.677 -85.4814 100.018
RightUpLeg  -39.251 -14.9893 -1.77615
RightLeg  74.2039 -4.61336 -19.0036
RightFoot  -26.7268 1.06891 9.2282
RightToes  -1.33073e-015 0 -3.6325e-017
Spine  33.8578 1.30305 -4.17229
Spine1  -17.9536 0.287223 -0.0574431
HEad  -21.8618 6.81594 -4.55573
LeftShoulder1  0.417987 8.39666 19.4043
LeftArm  -70.7269 -5.59204 0.686432
LeftForeArm  -23.2939 -62.817 -24.6031
LeftHand  -0.424429 3.87735 32.5667
RightShoulder  -0.0251586 -6.43965 -8.6119
RightArm  -80.8725 -0.354454 -3.36193
RightForeArm  -44.1009 59.5635 22.325
RightHand  -2.35068 1.93138 -36.2777
LeftUpLeg  -37.0382 25.7419 -1.83543
LeftLeg  72.5362 1.76119 7.36523
LeftFoot  -26.4924 -1.12614 -9.63405
LeftToes  -4.0021e-011 8.38769e-011 -3.99229e-011
208
root  0.742815 31.6162 -21.6818 -104.937 -85.2006 104.031
RightUpLeg  -41.0548 -12.8145 -2.69018
RightLeg  77.329 -3.83394 -20.6913
RightFoot  -27.8375 1.5411 11.9449
RightToes  -1.33073e-015 0 -3.6325e-017
Spine  33.734 1.21691 -4.67605
Spine1  -14.1015 0.172395 -0.461704
HEad  -26.732 6.94159 -4.69491
LeftShoulder1  0.614768 9.54131 21.2761
LeftArm  -73.9846 -3.86858 1.32094
LeftForeArm  -27.1316 -61.7686 -23.9312
LeftHand  0.0513252 5.52546 35.2965
RightShoulder  0.0180339 -6.47864 -10.2766
RightArm  -81.6894 -1.50618 -4.45875
RightForeArm  -48.7153 55.7243 19.4132
RightHand  -2.51036 1.88044 -38.8483
LeftUpLeg  -37.9962 25.5066 -3.51712
LeftLeg  74.5746 1.99238 9.42194
LeftFoot  -30.1388 -1.26912 -8.73293
LeftToes  -4.0021e-011 8.38769e-011 -3.99229e-011
209
root  0.67913 31.8813 -21.2947 -94.3338 -85.2368 91.9922
RightUpLeg  -38.8111 -13.5251 -4.08578
RightLeg  76.4785 -4.16314 -20.6974
RightFoot  -26.1233 1.49099 12.8077
RightToes  -1.33073e-015 0 -3.6325e-017
Spine  33.1717 0.749056 -4.71115
Spine1  -12.0343 -0.246499 -1.08937
HEad  -25.5878 6.96619 -3.98262
LeftShoulder1  0.569174 9.36883 20.7048
LeftArm  -73.9292 -4.80182 -5.67591
LeftForeArm  -16.9856 -68.9987 -35.0168
LeftHand  0.329027 6.33802 37.5382
RightShoulder  -0.0104797 -5.69279 -8.84361
RightArm  -77.6233 -3.50734 0.461579
RightForeArm  -41.5789 61.3958 24.6221
RightHand  -2.31149 2.15164 -34.7893
LeftUpLeg  -35.4941 24.3552 -3.81292
LeftLeg  73.31 2.37104 10.0409
LeftFoot  -30.419 -1.26003 -8.5372
LeftToes  -4.0021e-011 8.38769e-011 -3.99229e-011
210
root  0.368361 32.9644 -20.9028 -80.445 -85.5518 77.0512
RightUpLeg  -34.1871 -15.343 -5.30732
RightLeg  71.5844 -5.64235 -19.2531
RightFoot  -23.3455 1.1287 12.1952
RightToes  -1.33073e-015 0 -3.6325e-017
Spine  31.6913 0.183906 -4.05433
Spine1  -12.2757 -0.679172 -1.06751
HEad  -20.0174 7.00369 -3.22567
LeftShoulder1  0.259795 7.85466 16.3229
LeftArm  -67.7712 -7.02805 -16.4557
LeftForeArm  14.9983 -76.7862 -65.0257
LeftHand  0.341666 6.33326 38.7865
RightShoulder  -0.0456656 -4.42481 -3.54432
RightArm  -70.8077 -4.07817 8.02721
RightForeArm  -23.9163 70.4613 38.3891
RightHand  -2.23946 2.1266 -33.8903
LeftUpLeg  -32.3323 24.442 -2.57878
LeftLeg  70.3898 1.84902 6.79531
LeftFoot  -25.3079 -0.921977 -8.73191
LeftToes  -4.0021e-011 8.38769e-011 -3.99229e-011
211
root  -0.0982619 34.5708 -20.4774 -74.8861 -85.9779 71.384
RightUpLeg  -28.6904 -17.2903 -6.32616
RightLeg  63.3155 -7.33254 -16.066
RightFoot  -20.158 0.725531 11.1407
RightToes  -1.33073e-015 0 -3.6325e-017
Spine  29.0467 -0.380119 -3
Spine1  -13.3475 -0.967962 -1.20471
HEad  -13.9488 7.28265 -2.61493
LeftShoulder1  -0.0258758 5.26587 6.81829
LeftArm  -58.5441 -5.85749 -24.191
LeftForeArm  51.6584 -78.0664 -97.3252
LeftHand  0.226273 5.99559 39.0421
RightShoulder  0.079033 -2.86775 4.00357
RightArm  -63.7318 -4.85095 16.097
RightForeArm  -3.12585 75.3634 55.9096
RightHand  -2.19438 1.1836 -37.5658
LeftUpLeg  -29.1254 27.0573 -0.126833
LeftLeg  66.1259 -1.12998 -1.88002
LeftFoot  -15.864 -0.329851 -12.2449
LeftToes  -4.0021e-011 8.38769e-011 -3.99229e-011
212
root  -0.618976 36.3242 -19.978 -81.7233 -86.6006 78.5567
RightUpLeg  -22.862 -19.5232 -7.26209
RightLeg  52.8374 -8.11587 -11.7223
RightFoot  -15.7703 0.289934 10.2133
RightToes  -1.33073e-015 0 -3.6325e-017
Spine  26.1488 -0.849273 -1.45676
Spine1  -14.4315 -1.02136 -2.11772
HEad  -8.93664 7.68407 -1.95552
LeftShoulder1  0.22303 1.95779 -6.04839
LeftArm  -52.1838 0.274079 -25.5802
LeftForeArm  64.0411 -77.7169 -106.253
LeftHand  0.105811 5.65799 38.4946
RightShoulder  0.478684 -0.958102 11.6917
RightArm  -59.344 -8.23269 22.9098
RightForeArm  6.28156 76.1388 60.9564
RightHand  -2.32374 1.90706 -36.3644
LeftUpLeg  -24.9525 30.719 3.16512
LeftLeg  60.413 -6.22544 -11.1011
LeftFoot  -6.99459 0.797385 -20.1764
LeftToes  -4.0021e-011 8.38769e-011 -3.99229e-011
213
root  -1.12356 37.8972 -19.4231 -97.3929 -86.9349 94.937
RightUpLeg  -17.3735 -21.8557 -8.34866
RightLeg  41.6529 -7.5225 -7.40185
RightFoot  -10.5857 -0.142713 10.0201
RightToes  -1.33073e-015 0 -3.6325e-017
Spine  23.5314 -0.82071 -0.131727
Spine1  -15.7692 -0.690339 -3.25831
HEad  -4.70049 7.87952 -1.46378
LeftShoulder1  1.00925 -0.840172 -16.9069
LeftArm  -49.1751 8.10154 -24.1733
LeftForeArm  61.359 -77.8548 -103.519
LeftHand  -0.0797866 5.11244 37.3597
RightShoulder  1.00952 0.654544 17.9257
RightArm  -58.4184 -13.6649 27.1113
RightForeArm  9.91102 75.8489 57.4469
RightHand  -3.00798 7.24706 -27.678
LeftUpLeg  -20.2319 32.8377 6.135
LeftLeg  53.0921 -9.56186 -13.074
LeftFoot  -4.42165 1.57466 -25.6672
LeftToes  -4.0021e-011 8.38769e-011 -3.99229e-011
214
root  -1.51745 39.073 -18.8974 -111.764 -86.5602 110.6
RightUpLeg  -13.3948 -23.3953 -9.47493
RightLeg  31.7187 -6.24347 -4.36449
RightFoot  -6.0285 -0.569129 11.261
RightToes  -1.33073e-015 0 -3.6325e-017
Spine  20.6456 -0.0738571 -0.143141
Spine1  -16.7547 0.0444357 -3.85606
HEad  -1.94207 7.80807 -1.5435
LeftShoulder1  1.46865 -1.85601 -21.1523
LeftArm  -47.4802 13.7413 -24.8481
LeftForeArm  55.3383 -77.9572 -99.6358
LeftHand  -0.3334 4.32488 36.2905
RightShoulder  1.25062 1.1504 20.6471
RightArm  -59.4802 -18.5197 29.6701
RightForeArm  14.8843 76.1915 59.0976
RightHand  -3.10796 11.888 -20.7852
LeftUpLeg  -16.6228 32.089 7.77572
LeftLeg  44.5289 -6.13364 -6.19085
LeftFoot  -7.23913 0.92277 -23.6072
LeftToes  -4.0021e-011 8.38769e-011 -3.99229e-011
215
root  -1.68701 39.6851 -18.4132 -118.223 -86.1292 118.458
RightUpLeg  -11.7285 -23.977 -10.12
RightLeg  25.4521 -5.27708 -2.93515
RightFoot  -3.12545 -0.95854 13.0477
RightToes  -1.33073e-015 0 -3.6325e-017
Spine  17.7998 0.81804 -0.760634
Spine1  -16.2811 0.85316 -3.72982
HEad  -1.58136 7.52796 -1.98072
LeftShoulder1  1.18525 -1.10563 -19.0708
LeftArm  -46.9395 14.7083 -27.1785
LeftForeArm  58.0072 -77.7387 -103.58
LeftHand  -0.445507 3.95695 35.7845
RightShoulder  1.04705 0.592214 19.129
RightArm  -61.2728 -20.3836 31.1216
RightForeArm  22.5886 77.2461 69.8447
RightHand  -2.77471 9.65831 -21.7842
LeftUpLeg  -15.036 28.8514 8.56862
LeftLeg  37.5633 4.32794 3.97431
LeftFoot  -10.127 0.216782 -15.1307
LeftToes  -4.0021e-011 8.38769e-011 -3.99229e-011
